# Blender 4.0.2
# www.blender.org
mtllib Canon1.mtl
o Cube
v 0.000000 0.372575 -1.260083
v 0.000000 0.372575 6.749799
v 0.263450 0.263450 -1.260083
v 0.263450 0.263450 6.749799
v 0.372575 0.000000 -1.260083
v 0.372575 0.000000 6.749799
v 0.263450 -0.263450 -1.260083
v 0.263450 -0.263450 6.749799
v 0.000000 -0.372575 -1.260083
v 0.000000 -0.372575 6.749799
v -0.263450 -0.263450 -1.260083
v -0.263450 -0.263450 6.749799
v -0.372575 0.000000 -1.260083
v -0.372575 0.000000 6.749799
v -0.263450 0.263450 -1.260083
v -0.263450 0.263450 6.749799
v -0.407866 -0.407866 6.767787
v -0.407866 -0.813913 6.767787
v 0.407866 -0.813913 6.767787
v 0.407866 -0.407866 6.767787
v -0.407866 -0.813913 2.945628
v 0.407866 -0.813913 2.945628
v 0.407866 -0.813913 3.141009
v -0.407866 -0.813913 3.141009
v 0.407866 0.407866 2.325276
v 0.407866 -0.407866 2.325276
v 0.407866 0.407866 3.141009
v 0.407866 -0.407866 3.141009
v -0.407866 0.407866 2.325276
v -0.407866 -0.407866 2.325276
v -0.407866 0.407866 3.141009
v -0.407866 -0.407866 3.141009
v 0.210568 0.619872 3.141009
v -0.210568 0.619872 3.141009
v 0.210568 0.619872 2.325276
v -0.210568 0.619872 2.325276
v -0.407866 0.407866 0.099348
v 0.407866 0.407866 0.099348
v -0.210568 0.619872 0.099348
v 0.210568 0.619872 0.099348
v -0.407866 0.407866 -0.367617
v 0.407866 0.407866 -0.367617
v -0.210568 0.619872 -0.367617
v 0.210568 0.619872 -0.367617
v -0.221145 -0.541608 0.095517
v 0.220691 -0.541608 0.095517
v -0.221145 -0.541608 -0.371448
v 0.220691 -0.541608 -0.371448
v -0.071550 0.619872 0.099348
v 0.071550 0.619872 0.099348
v -0.071550 0.619872 -0.367617
v 0.071550 0.619872 -0.367617
v -0.071550 0.732306 0.099348
v 0.071550 0.732306 0.099348
v -0.071550 0.732306 -0.367617
v 0.071550 0.732306 -0.367617
v 0.407866 -0.068246 0.099348
v 0.407866 -0.068246 -0.367617
v -0.407866 -0.068246 -0.367617
v -0.407866 -0.068246 0.099348
v -0.407866 -0.544358 2.724483
v 0.407866 -0.544358 2.724483
v 0.407866 -0.068246 2.724483
v -0.407866 -0.068246 2.724483
v 0.000000 0.469023 -1.260083
v 0.331650 0.331650 -1.260083
v 0.469023 0.000000 -1.260083
v 0.331650 -0.331650 -1.260083
v 0.000000 -0.469023 -1.260083
v -0.331650 -0.331650 -1.260083
v -0.469023 0.000000 -1.260083
v -0.331650 0.331650 -1.260083
v 0.000000 0.469023 -2.018262
v 0.331650 0.331650 -2.018262
v 0.469023 -0.000000 -2.018262
v 0.331650 -0.331650 -2.018262
v 0.000000 -0.469023 -2.018262
v -0.331650 -0.331650 -2.018262
v -0.469023 -0.000000 -2.018262
v -0.331650 0.331650 -2.018262
v -0.407866 -0.068246 0.946729
v -0.407866 -0.068246 1.368839
v 0.407866 -0.068246 1.368839
v 0.407866 -0.068246 0.946729
v 0.220850 -0.544358 1.849438
v 0.220850 -0.544358 0.974393
v -0.220985 -0.544358 1.849438
v -0.220985 -0.544358 0.974393
v -0.407866 0.407774 0.946729
v -0.407866 0.407774 1.368839
v 0.407866 0.407774 1.368839
v 0.407866 0.407774 0.946729
vn 0.3827 0.9239 -0.0000
vn 1.0000 -0.0000 -0.0000
vn -0.7320 0.6813 -0.0000
vn 0.9239 0.3827 -0.0000
vn -0.0000 -0.0000 1.0000
vn 0.9239 -0.3827 -0.0000
vn 0.3827 -0.9239 -0.0000
vn -1.0000 -0.0000 -0.0000
vn -0.0000 -0.8367 -0.5477
vn -0.3827 -0.9239 -0.0000
vn -0.9239 -0.3827 -0.0000
vn -0.9239 0.3827 -0.0000
vn -0.0000 -1.0000 -0.0000
vn -0.3827 0.9239 -0.0000
vn -0.0000 1.0000 -0.0000
vn -0.0000 -0.0000 -1.0000
vn 0.7320 0.6813 -0.0000
vn 0.9299 -0.3677 -0.0000
vn -0.0000 0.0081 -1.0000
vn -0.9302 -0.3669 -0.0000
vn 0.9695 -0.2314 -0.0813
vn -0.9695 -0.2313 -0.0812
vn -0.9305 -0.3662 -0.0005
vn -0.9309 -0.3654 -0.0000
vn -0.0000 -1.0000 -0.0031
vn 0.9304 -0.3667 -0.0007
vn 0.9308 -0.3656 -0.0000
vt 1.000000 0.500000
vt 1.000000 1.000000
vt 0.875000 1.000000
vt 0.875000 0.500000
vt 0.375000 0.000000
vt 0.625000 0.000000
vt 0.625000 0.250000
vt 0.375000 0.250000
vt 0.875000 0.750000
vt 0.750000 1.000000
vt 0.750000 0.500000
vt 0.375000 0.500000
vt 0.625000 0.500000
vt 0.625000 0.750000
vt 0.375000 0.750000
vt 0.625000 1.000000
vt 0.500000 1.000000
vt 0.500000 0.500000
vt 0.125000 0.500000
vt 0.125000 0.750000
vt 0.375000 1.000000
vt 0.250000 1.000000
vt 0.250000 0.500000
vt 0.419706 0.419706
vt 0.250000 0.490000
vt 0.080294 0.419706
vt 0.010000 0.250000
vt 0.080294 0.080294
vt 0.250000 0.010000
vt 0.419706 0.080294
vt 0.490000 0.250000
vt 0.125000 1.000000
vt 0.000000 1.000000
vt 0.000000 0.500000
vt 0.750000 0.490000
vt 0.919706 0.419706
vt 0.990000 0.250000
vt 0.919706 0.080294
vt 0.750000 0.010000
vt 0.580294 0.080294
vt 0.510000 0.250000
vt 0.580294 0.419706
s 0
f 1/1/1 2/2/1 4/3/1 3/4/1
f 26/5/2 25/6/2 27/7/2 28/8/2
f 29/9/3 36/9/3 39/9/3 37/9/3
f 3/4/4 4/3/4 6/10/4 5/11/4
f 28/12/5 27/13/5 31/14/5 32/15/5
f 5/11/6 6/10/6 8/16/6 7/13/6
f 7/13/7 8/16/7 10/17/7 9/18/7
f 32/13/8 24/13/8 18/13/8 17/13/8
f 30/19/9 26/20/9 22/20/9 21/19/9
f 9/18/10 10/17/10 12/21/10 11/12/10
f 26/5/2 28/8/2 23/8/2 22/5/2
f 11/12/11 12/21/11 14/22/11 13/23/11
f 4/24/5 2/25/5 16/26/5 14/27/5 12/28/5 10/29/5 8/30/5 6/31/5
f 13/23/12 14/22/12 16/32/12 15/19/12
f 24/21/13 23/16/13 19/16/13 18/21/13
f 15/19/14 16/32/14 2/33/14 1/34/14
f 11/12/5 13/23/5 71/23/5 70/12/5
f 28/12/15 32/15/15 17/15/15 20/12/15
f 30/19/16 29/12/16 25/15/16 26/20/16
f 20/12/5 17/15/5 18/15/5 19/12/5
f 23/8/2 28/8/2 20/8/2 19/8/2
f 32/13/8 31/4/8 29/9/8 30/14/8
f 32/13/8 30/14/8 21/14/8 24/13/8
f 21/15/13 22/14/13 23/16/13 24/21/13
f 35/8/15 36/7/15 34/13/15 33/12/15
f 27/7/17 25/6/17 35/6/17 33/7/17
f 31/14/5 27/13/5 33/13/5 34/14/5
f 29/9/3 31/4/3 34/4/3 36/9/3
f 40/6/17 38/6/17 42/6/17 44/6/17
f 25/15/13 29/12/13 37/12/13 38/15/13
f 36/7/15 35/8/15 40/8/15 39/7/15
f 35/6/17 25/6/17 38/6/17 40/6/17
f 42/15/16 41/12/16 43/12/16 44/15/16
f 43/9/15 39/9/15 49/9/15 51/9/15
f 37/9/3 39/9/3 43/9/3 41/9/3
f 58/6/18 57/6/18 46/6/18 48/6/18
f 46/15/13 45/12/13 47/12/13 48/15/13
f 59/12/19 58/15/19 48/15/19 47/12/19
f 60/9/20 59/9/20 47/9/20 45/9/20
f 83/15/15 82/12/15 64/12/15 63/15/15
f 51/9/8 49/9/8 53/9/8 55/9/8
f 39/7/15 40/8/15 50/8/15 49/7/15
f 40/6/15 44/6/15 52/6/15 50/6/15
f 44/15/15 43/12/15 51/12/15 52/15/15
f 53/7/15 54/8/15 56/8/15 55/7/15
f 52/15/16 51/12/16 55/12/16 56/15/16
f 50/6/2 52/6/2 56/6/2 54/6/2
f 49/7/5 50/8/5 54/8/5 53/7/5
f 38/15/5 37/12/5 60/12/5 57/15/5
f 37/9/8 41/9/8 59/9/8 60/9/8
f 41/12/16 42/15/16 58/15/16 59/12/16
f 42/6/2 38/6/2 57/6/2 58/6/2
f 63/15/5 64/12/5 61/12/5 62/15/5
f 85/6/21 83/6/21 63/6/21 62/6/21
f 87/12/13 85/15/13 62/15/13 61/12/13
f 82/9/22 87/9/22 61/9/22 64/9/22
f 72/19/14 65/34/14 73/34/14 80/19/14
f 3/4/5 5/11/5 67/11/5 66/4/5
f 13/23/5 15/19/5 72/19/5 71/23/5
f 7/13/5 9/18/5 69/18/5 68/13/5
f 1/1/5 3/4/5 66/4/5 65/1/5
f 5/11/5 7/13/5 68/13/5 67/11/5
f 15/19/5 1/34/5 65/34/5 72/19/5
f 9/18/5 11/12/5 70/12/5 69/18/5
f 73/35/16 74/36/16 75/37/16 76/38/16 77/39/16 78/40/16 79/41/16 80/42/16
f 70/12/11 71/23/11 79/23/11 78/12/11
f 68/13/7 69/18/7 77/18/7 76/13/7
f 66/4/4 67/11/4 75/11/4 74/4/4
f 71/23/12 72/19/12 80/19/12 79/23/12
f 69/18/10 70/12/10 78/12/10 77/18/10
f 67/11/6 68/13/6 76/13/6 75/11/6
f 65/1/1 66/4/1 74/4/1 73/1/1
f 60/9/23 45/9/23 88/9/23 81/9/23
f 81/9/24 88/9/24 87/9/24 82/9/24
f 45/12/25 46/15/25 86/15/25 88/12/25
f 88/12/13 86/15/13 85/15/13 87/12/13
f 46/6/26 57/6/26 84/6/26 86/6/26
f 86/6/27 84/6/27 83/6/27 85/6/27
f 57/15/15 60/12/15 81/12/15 84/15/15
f 83/6/2 84/6/2 92/6/2 91/6/2
f 92/15/15 89/12/15 90/12/15 91/15/15
f 84/15/16 81/12/16 89/12/16 92/15/16
f 81/9/8 82/9/8 90/9/8 89/9/8
f 82/12/5 83/15/5 91/15/5 90/12/5
